# xmcd
#
# Track frame offsets:
# 150
# 5865
# 22402
# 25630
# 50066
# 53002
# 70419
# 74375
# 105398
# 127347
# 131012
# 148575
# 172720
# 174923
# 203605
# 205516
# 238001
# 260392
# 272980
# 297713
# 313813
# 326989
#
# Disc length: 4673 seconds
#
#
# Revision: 0
# Processed by: cddbd v1.4PL0 Copyright (c) Steve Scherf et al.
# Submitted via: FreeRIP 2.40 
#
DISCID=59123f16
DTITLE=Cowboy Bebop - 'Radio Free Mars'
DYEAR=1900
DGENRE=Blues
TTITLE0=Talk 01
TTITLE1=Tank! - Luke Vibert Remix
TTITLE2=Talk 02
TTITLE3=Forver Broke - Filla Brazillia Remix
TTITLE4=Talk 03
TTITLE5=Cats on Mars - DMX Krew Remix
TTITLE6=Talk 04
TTITLE7=Piano Black - Ian O'Brian Remix
TTITLE8=Cats Blues - Mr. Scruff Remix
TTITLE9=Talk 05
TTITLE10=FE - DJ Vadim Remix
TTITLE11=Fantaisie Sign - Ian Pooley Remix
TTITLE12=Talk 06
TTITLE13=Space Lion - 4 Hero Remix
TTITLE14=Talk 07
TTITLE15=Space Lion
TTITLE16=Fantaisie Sign
TTITLE17=Cats on Mars
TTITLE18=Power of Kung Food Remix
TTITLE19=Flying Teapot
TTITLE20=Road to the West
TTITLE21=Farewell Blues!
EXTD=
EXTT0=
EXTT1=
EXTT2=
EXTT3=
EXTT4=
EXTT5=
EXTT6=
EXTT7=
EXTT8=
EXTT9=
EXTT10=
EXTT11=
EXTT12=
EXTT13=
EXTT14=
EXTT15=
EXTT16=
EXTT17=
EXTT18=
EXTT19=
EXTT20=
EXTT21=
PLAYORDER=
